<?xml version="1.0" standalone="no"?><!DOCTYPE svg PUBLIC "-//W3C//DTD SVG 1.1//EN" "http://www.w3.org/Graphics/SVG/1.1/DTD/svg11.dtd"><svg t="1603457705834" class="icon" viewBox="0 0 1024 1024" version="1.1" xmlns="http://www.w3.org/2000/svg" p-id="6618" width="64" height="64" xmlns:xlink="http://www.w3.org/1999/xlink"><defs><style type="text/css"></style></defs><path d="M365.44 622.6176l26.7008 147.0208A122.6496 122.6496 0 0 0 512.8192 870.4a122.3168 122.3168 0 0 0 119.2704-95.232l1.1264-5.5808 26.1888-146.7904 111.4624 24.7808 6.2208 1.5104a159.7952 159.7952 0 0 1 118.784 148.0704l0.128 6.4V870.4l-0.128 3.84a51.2 51.2 0 0 1-47.0528 47.2064L844.8 921.6H179.2l-3.84-0.128a51.2 51.2 0 0 1-47.2064-47.0528L128 870.4v-66.8416l0.128-6.4a159.7952 159.7952 0 0 1 118.784-148.0704l6.2208-1.5104 112.3072-24.96zM640 102.4l3.84 0.128a51.2 51.2 0 0 1 47.2064 47.0528L691.2 153.6v153.6H332.8V153.6l0.128-3.84a51.2 51.2 0 0 1 47.0528-47.2064L384 102.4h256z m-128 25.6a25.6 25.6 0 0 0-25.4208 22.6048L486.4 153.6v25.6h-25.6a25.6 25.6 0 0 0-2.9952 51.0208L460.8 230.4h25.6v25.6a25.6 25.6 0 0 0 51.0208 2.9952L537.6 256V230.4h25.6a25.6 25.6 0 0 0 2.9952-51.0208L563.2 179.2h-25.6V153.6a25.6 25.6 0 0 0-25.6-25.6z" fill="#05D2D0" p-id="6619"></path><path d="M640 51.2a102.4 102.4 0 0 1 102.4 102.4v256a229.6832 229.6832 0 0 1-68.5312 163.9424l108.1088 24.064A210.9952 210.9952 0 0 1 947.2 803.5584V870.4a102.4 102.4 0 0 1-102.4 102.4H179.2a102.4 102.4 0 0 1-102.4-102.4v-66.8416a210.9952 210.9952 0 0 1 165.2224-205.952l108.1088-24.064A229.6832 229.6832 0 0 1 281.6 409.6V153.6a102.4 102.4 0 0 1 102.4-102.4h256zM365.44 622.6176l-112.3072 24.96a159.7952 159.7952 0 0 0-125.0048 149.5808L128 803.584V870.4a51.2 51.2 0 0 0 47.36 51.072L179.2 921.6h665.6a51.2 51.2 0 0 0 51.072-47.36L896 870.4v-66.8416a159.7952 159.7952 0 0 0-118.912-154.4704l-6.2208-1.5104-111.4624-24.7808-26.1888 146.7904A122.3168 122.3168 0 0 1 512.8192 870.4a122.6496 122.6496 0 0 1-120.6784-100.7616l-26.7008-147.0208zM512 640a229.5552 229.5552 0 0 1-95.0528-20.48l25.5744 140.9792a71.4496 71.4496 0 0 0 65.8176 58.5728l4.48 0.128a71.1168 71.1168 0 0 0 69.0688-54.2464l0.9216-4.352 25.2928-141.568A229.5552 229.5552 0 0 1 512 640z m73.9328-67.1232l6.3488-3.0208c2.56-1.28 5.0688-2.6112 7.552-4.0192l-1.024 0.5632a179.0976 179.0976 0 0 0 92.288-150.6304L691.2 409.6v-51.2H332.8v51.2a179.0208 179.0208 0 0 0 79.0016 148.608l0.5888 0.384 5.376 3.456a179.2256 179.2256 0 0 0 6.5792 3.8912l-4.5568-2.6368c1.8944 1.1264 3.8144 2.2272 5.7344 3.3024l-1.1776-0.6656a178.56 178.56 0 0 0 15.5392 7.7568l-1.664-0.768c1.792 0.8192 3.584 1.6128 5.376 2.3552l-3.712-1.5872c2.2272 0.9984 4.5056 1.92 6.784 2.816l-3.072-1.2288c2.304 0.9472 4.5824 1.8432 6.912 2.688l-3.84-1.4592a177.8688 177.8688 0 0 0 12.7232 4.4544l-5.376-1.7664c2.6112 0.896 5.248 1.7408 7.936 2.5088l-2.56-0.768c1.9712 0.6144 3.9424 1.1776 5.9136 1.7152l-3.3536-0.9472c2.2272 0.6656 4.5056 1.28 6.7584 1.8176l-3.4048-0.8704c2.6112 0.7168 5.2736 1.3568 7.936 1.9456l-4.5312-1.0752c2.2016 0.5632 4.4032 1.0496 6.6048 1.536l-2.0736-0.4608c2.944 0.64 5.9136 1.2288 8.9344 1.7152l-6.8608-1.28c2.56 0.5376 5.1712 1.024 7.7824 1.4336l-0.9216-0.1536c2.304 0.4096 4.608 0.7424 6.9376 1.024l-6.016-0.8704c2.8928 0.4864 5.8112 0.8704 8.7296 1.2032l-2.7136-0.3328c2.304 0.3072 4.5824 0.5376 6.8608 0.768l-4.1472-0.4352c2.304 0.256 4.608 0.4864 6.9632 0.64l7.04 0.384L512 588.8l6.144-0.1024 7.0144-0.384a180.4288 180.4288 0 0 0 7.7568-0.7168l-5.0176 0.512c2.2272-0.2048 4.4544-0.4352 6.656-0.7168l-1.6384 0.2048a178.7648 178.7648 0 0 0 18.2784-3.072l-2.7136 0.5632c2.56-0.512 5.12-1.1264 7.68-1.792l-4.9664 1.2032c2.2272-0.512 4.48-1.024 6.6816-1.6128l-1.7152 0.4352c2.2784-0.5888 4.5312-1.2032 6.784-1.8688l-5.0688 1.4336c2.304-0.6144 4.608-1.28 6.8864-1.9712l-1.8176 0.5376c2.7136-0.7936 5.376-1.664 8.064-2.5856l-6.2464 2.048c2.9952-0.9216 5.9648-1.92 8.9088-2.9952l-2.6624 0.9472c2.1248-0.768 4.2496-1.536 6.3744-2.3552l-3.712 1.408c2.3808-0.896 4.736-1.792 7.0656-2.7648l-3.3536 1.3568c2.8672-1.152 5.7344-2.3552 8.5504-3.6352zM640 102.4H384a51.2 51.2 0 0 0-51.072 47.36L332.8 153.6v153.6h358.4V153.6a51.2 51.2 0 0 0-47.36-51.072L640 102.4z m-128 25.6a25.6 25.6 0 0 1 25.6 25.6v25.6h25.6a25.6 25.6 0 0 1 0 51.2h-25.6v25.6a25.6 25.6 0 0 1-51.2 0V230.4h-25.6a25.6 25.6 0 0 1 0-51.2h25.6V153.6a25.6 25.6 0 0 1 25.6-25.6z" fill="#0A515D" p-id="6620"></path></svg>